<?xml version="1.0" encoding="utf-8"?>
<!-- Generator: Adobe Illustrator 24.0.3, SVG Export Plug-In . SVG Version: 6.00 Build 0)  -->
<svg version="1.1" id="Layer_1" xmlns="http://www.w3.org/2000/svg" xmlns:xlink="http://www.w3.org/1999/xlink" x="0px" y="0px"
	 viewBox="0 0 30 30" style="enable-background:new 0 0 30 30;" xml:space="preserve">
<style type="text/css">
	.st0{fill:#1B00DD;}
</style>
<path class="st0" d="M8.05,0.8c0.68-0.03,1.18-0.05,1.8-0.07c0.22,0.59,0.42,1.13,0.64,1.73c0.45,0.13,0.93,0.26,1.45,0.4
	c0.14,0.49,0.27,0.97,0.43,1.53c0.44,0.13,0.91,0.28,1.49,0.46c0.16,0.51,0.34,1.08,0.58,1.83c0.49,0.15,1.07,0.32,1.81,0.54
	c0.08,0.38,0.19,0.87,0.33,1.51c0.41,0.1,0.9,0.22,1.52,0.37c0.16,0.47,0.34,1.03,0.54,1.65c0.39,0.09,0.78,0.17,1.32,0.3
	c0.21,0.56,0.45,1.21,0.71,1.93c0.58,0.19,1.14,0.37,1.8,0.58c0.08,0.37,0.16,0.76,0.27,1.33c0.53,0.2,1.16,0.44,1.81,0.69
	c-0.03,0.49-0.06,0.89-0.11,1.56c-1.98-0.01-3.91-0.03-5.98-0.04c-0.01,1.49-0.02,2.7-0.03,4.06c0.46,0.16,1.02,0.35,1.76,0.61
	c-0.01,1.07-0.01,2.18-0.02,3.38c0.85,0.38,1.56,0.69,2.27,1c-0.01,1.09-0.01,2.11-0.02,3.32c-1.36-0.01-2.64-0.02-4.15-0.03
	c0.01-1.16,0.01-2.26,0.02-3.36c-0.76-0.27-1.32-0.47-1.95-0.69c0.01-1.19,0.02-2.32,0.02-3.63c-0.71-0.18-1.37-0.36-2.11-0.55
	c-0.18-0.52-0.37-1.08-0.58-1.68c-0.45,0-0.85-0.01-1.35-0.01c-0.18,0.55-0.36,1.11-0.54,1.67c-0.52,0.14-1,0.27-1.49,0.4
	c-0.16,0.5-0.3,0.98-0.49,1.58c-0.59,0-1.17-0.01-1.92-0.01C7.95,15.8,8,8.46,8.05,0.8z"/>
</svg>
