<svg id="Layer_1" data-name="Layer 1" xmlns="http://www.w3.org/2000/svg" viewBox="0 0 66.99 95.21"><defs><style>.cls-1{fill:#fff;}</style></defs><polygon points="2.79 48.14 13.39 40.6 27.25 60.12 27.25 2 40.25 2 40.25 60.02 53.57 41.13 64.2 48.63 33.76 91.75 2.79 48.14"/><path class="cls-1" d="M814,145v62.32l15.81-22.4,7.36,5.19-27.66,39.18-28.18-39.68,7.34-5.22,16.33,23V145h9m4-4H801v53.85l-9.07-12.78-2.32-3.26-3.26,2.32L779,186.35l-3.26,2.32,2.32,3.26,28.18,39.68,3.27,4.6,3.26-4.61,27.66-39.18,2.31-3.27-3.27-2.31-7.36-5.19-3.27-2.3-2.31,3.26L818,194.72V141Z" transform="translate(-775.75 -141)"/></svg>